<svg xmlns="http://www.w3.org/2000/svg" xmlns:xlink="http://www.w3.org/1999/xlink" viewBox="0 0 720.48 572.93"><defs><style>.cls-1{fill:url(#名称未設定グラデーション_25);}.cls-2{fill:#fff;}.cls-2,.cls-3{stroke:#fff;stroke-miterlimit:10;stroke-width:0.1px;}.cls-3{fill:none;}</style><linearGradient id="名称未設定グラデーション_25" x1="85.38" y1="363.37" x2="622.83" y2="53.08" gradientTransform="matrix(0.78, 0.63, -0.81, 0.63, 245.03, -70.04)" gradientUnits="userSpaceOnUse"><stop offset="0" stop-color="#666"/><stop offset="0.18" stop-color="#626262"/><stop offset="0.36" stop-color="#565656"/><stop offset="0.55" stop-color="#414141"/><stop offset="0.58" stop-color="#3d3d3d"/><stop offset="0.79" stop-color="#2c2c2c"/><stop offset="1" stop-color="#1f1f1f"/></linearGradient></defs><title>アセット 2</title><g id="レイヤー_2" data-name="レイヤー 2"><g id="レイヤー_1-2" data-name="レイヤー 1"><polygon class="cls-1" points="352.6 572.93 0 286.47 367.87 0 720.48 286.47 352.6 572.93"/><polygon class="cls-2" points="250.22 257.64 237.8 247.55 314.13 188.11 326.55 198.2 250.22 257.64"/><line class="cls-3" x1="320.34" y1="193.16" x2="244.01" y2="252.6"/><path class="cls-2" d="M185.7,205.22,260,147.37c3.53-2.75,3.34-7.47-.41-10.52s-9.66-3.3-13.19-.58l-74.29,57.87-12.42-10.08,74.66-58.17h0c10.7-8,27.71-7.65,38.18.86,10.2,8.29,10.54,21.35,1.05,29.73l0,0-75.47,58.79Z"/><path class="cls-3" d="M165.86,189.1l74.66-58.16-.4.31c7.11-5.54,18.71-5.29,25.9.55s7.26,15.07.15,20.61l1.21-.94-75.47,58.79"/><path class="cls-2" d="M211.74,226.38,286,168.53c3.53-2.75,3.34-7.47-.42-10.52s-9.68-3.3-13.21-.55L260,147.37l.41-.31c10.7-8,27.71-7.65,38.18.86,10.2,8.29,10.54,21.35,1.05,29.73l0,0-75.47,58.79Z"/><path class="cls-3" d="M266.57,152.1l-.4.31c7.11-5.54,18.71-5.29,25.9.56s7.26,15.07.15,20.61l1.21-.94L218,231.43"/><polygon class="cls-2" points="354.45 342.32 342.03 332.23 418.36 272.79 430.78 282.88 354.45 342.32"/><line class="cls-3" x1="424.57" y1="277.83" x2="348.24" y2="337.27"/><path class="cls-2" d="M263.87,268.73l74.67-58.16h0c10.7-8,27.71-7.64,38.19.86,10.2,8.29,10.54,21.35,1,29.73l0,0L302.34,300,289.92,289.9,364.18,232c3.53-2.74,3.35-7.46-.41-10.52s-9.65-3.3-13.19-.57l-74.29,57.87Z"/><path class="cls-3" d="M270.08,273.78l74.67-58.17-.41.32c7.12-5.54,18.72-5.3,25.91.55s7.26,15.07.14,20.61l1.21-.94-75.47,58.79"/><path class="cls-2" d="M316,311.06l74.26-57.85c3.53-2.75,3.35-7.47-.41-10.52s-9.69-3.31-13.22-.56L364.18,232l.41-.31c10.7-8,27.71-7.64,38.19.87,10.2,8.28,10.53,21.34,1,29.73l0,0-75.47,58.79Z"/><path class="cls-3" d="M370.8,236.78l-.41.31c7.12-5.54,18.72-5.29,25.91.55s7.26,15.07.14,20.61l1.21-.94L322.18,316.1"/><path class="cls-2" d="M420.21,395.75l74.66-58.17h0c10.7-8,27.71-7.64,38.18.87,10.21,8.29,10.54,21.34,1.05,29.73l0,0L458.68,427l-12.42-10.09,74.26-57.85c3.53-2.75,3.35-7.47-.41-10.52s-9.66-3.3-13.19-.58l-74.29,57.87Z"/><path class="cls-3" d="M426.42,400.79l74.66-58.16-.4.31c7.11-5.54,18.71-5.29,25.91.55s7.25,15.07.14,20.61l1.21-.94L452.47,422"/><path class="cls-2" d="M472.31,438.07l74.26-57.85c3.53-2.75,3.35-7.47-.41-10.52s-9.69-3.3-13.22-.55l-12.42-10.09.41-.31c10.7-8,27.71-7.65,38.18.86,10.21,8.29,10.54,21.35,1,29.73l0,0-75.47,58.79Z"/><path class="cls-3" d="M527.13,363.79l-.4.31c7.11-5.54,18.71-5.29,25.91.55s7.25,15.08.14,20.62l1.21-.94-75.47,58.79"/><path class="cls-2" d="M369.8,382.66c-10.47-8.51-10.55-22-.27-30.38h0l74.69-58.15,12.42,10.09-74.31,57.85c-3.51,2.75-3.31,7.46.44,10.5s9.68,3.3,13.21.56l74.29-57.83,12.42,10.09-75.5,58.77,0,0C396.41,391.5,380,391,369.8,382.66Z"/><path class="cls-3" d="M450.42,299.18l-74.69,58.14.4-.31c-7.11,5.54-7,14.76.15,20.61s18.79,6.09,25.9.55l-1.2.94,75.49-58.77"/></g></g></svg>